<svg width="41" height="41" viewBox="0 0 41 41" fill="none" xmlns="http://www.w3.org/2000/svg">
<path d="M37.1735 31.0143C37.1735 31.6235 37.0381 32.2495 36.7505 32.8586C36.4629 33.4678 36.0906 34.043 35.5999 34.5845C34.7708 35.4982 33.8572 36.1581 32.825 36.5811C31.8098 37.0041 30.71 37.224 29.5256 37.224C27.7998 37.224 25.9555 36.8179 24.0097 35.9889C22.0638 35.1598 20.118 34.043 18.1891 32.6387C16.2433 31.2174 14.399 29.6438 12.6393 27.901C10.8966 26.1413 9.32299 24.2971 7.91862 22.3682C6.53117 20.4393 5.41445 18.5104 4.60228 16.5984C3.79012 14.6695 3.38403 12.8252 3.38403 11.0655C3.38403 9.91495 3.58707 8.81515 3.99316 7.79994C4.39924 6.76781 5.0422 5.82029 5.93897 4.97428C7.02186 3.90831 8.20627 3.38379 9.45835 3.38379C9.93212 3.38379 10.4059 3.48531 10.8289 3.68835C11.2688 3.89139 11.658 4.19595 11.9625 4.63588L15.888 10.1688C16.1926 10.5918 16.4125 10.9809 16.5648 11.3532C16.7171 11.7085 16.8017 12.0638 16.8017 12.3853C16.8017 12.7914 16.6832 13.1975 16.4464 13.5866C16.2264 13.9758 15.9049 14.3819 15.4988 14.7879L14.2129 16.1246C14.0268 16.3108 13.9422 16.5307 13.9422 16.8014C13.9422 16.9368 13.9591 17.0552 13.9929 17.1906C14.0437 17.326 14.0945 17.4275 14.1283 17.529C14.4329 18.0874 14.9574 18.8149 15.7019 19.6948C16.4633 20.5746 17.2754 21.4714 18.1553 22.3682C19.069 23.2649 19.9488 24.094 20.8456 24.8554C21.7254 25.5999 22.453 26.1075 23.0283 26.4121C23.1129 26.4459 23.2144 26.4967 23.3328 26.5474C23.4682 26.5982 23.6036 26.6151 23.7559 26.6151C24.0435 26.6151 24.2635 26.5136 24.4496 26.3275L25.7355 25.0585C26.1585 24.6355 26.5646 24.314 26.9538 24.1109C27.3429 23.874 27.7321 23.7556 28.1551 23.7556C28.4766 23.7556 28.815 23.8233 29.1872 23.9756C29.5595 24.1278 29.9486 24.3478 30.3716 24.6355L35.9722 28.6117C36.4121 28.9162 36.7167 29.2716 36.9028 29.6946C37.072 30.1176 37.1735 30.5406 37.1735 31.0143Z" stroke="url(#paint0_linear_2013_1342)" stroke-width="2.53802" stroke-miterlimit="10"/>
<defs>
<linearGradient id="paint0_linear_2013_1342" x1="3.38192" y1="20.3092" x2="37.1651" y2="20.3092" gradientUnits="userSpaceOnUse">
<stop stop-color="#3A978C"/>
<stop offset="1" stop-color="#1DF8DC"/>
</linearGradient>
</defs>
</svg>
