<svg width="31" height="31" viewBox="0 0 31 31" fill="none" xmlns="http://www.w3.org/2000/svg">
<path d="M27.5456 12.6848H26.5281V12.6323H15.1588V17.6853H22.2981C21.2565 20.6268 18.4578 22.7383 15.1588 22.7383C10.9731 22.7383 7.57936 19.3446 7.57936 15.1588C7.57936 10.9731 10.9731 7.57936 15.1588 7.57936C17.091 7.57936 18.8488 8.30825 20.1872 9.49886L23.7603 5.92577C21.5041 3.82309 18.4862 2.52637 15.1588 2.52637C8.18256 2.52637 2.52637 8.18256 2.52637 15.1588C2.52637 22.1351 8.18256 27.7913 15.1588 27.7913C22.1351 27.7913 27.7913 22.1351 27.7913 15.1588C27.7913 14.3118 27.7042 13.485 27.5456 12.6848Z" fill="#FFC107"/>
<path d="M3.98291 9.27906L8.13331 12.3229C9.25634 9.54245 11.9761 7.57936 15.1589 7.57936C17.091 7.57936 18.8488 8.30825 20.1872 9.49886L23.7603 5.92577C21.5042 3.82309 18.4863 2.52637 15.1589 2.52637C10.3067 2.52637 6.09885 5.26572 3.98291 9.27906Z" fill="#FF3D00"/>
<path d="M15.1589 27.7911C18.4219 27.7911 21.3867 26.5424 23.6284 24.5117L19.7186 21.2033C18.4079 22.2006 16.8059 22.7399 15.1589 22.7381C11.8732 22.7381 9.08332 20.643 8.03229 17.7192L3.91284 20.8931C6.00352 24.9842 10.2493 27.7911 15.1589 27.7911Z" fill="#4CAF50"/>
<path d="M27.5457 12.6847H26.5282V12.6323H15.1589V17.6853H22.2982C21.8 19.0853 20.9025 20.3086 19.7167 21.2041L19.7186 21.2028L23.6284 24.5113C23.3517 24.7627 27.7914 21.4751 27.7914 15.1588C27.7914 14.3118 27.7043 13.485 27.5457 12.6847Z" fill="#1976D2"/>
</svg>
