<svg width="31" height="31" viewBox="0 0 31 31" fill="none" xmlns="http://www.w3.org/2000/svg">
<path fill-rule="evenodd" clip-rule="evenodd" d="M27.0794 0H3.86848C1.73501 0 0 1.73501 0 3.86848V27.0794C0 29.2128 1.73501 30.9479 3.86848 30.9479H15.4739V20.3095H11.6054V15.4739H15.4739V11.6054C15.4739 10.0665 16.0853 8.59052 17.1735 7.5023C18.2617 6.41408 19.7377 5.80272 21.2766 5.80272H25.1451V10.6383H23.2109C22.1432 10.6383 21.2766 10.5377 21.2766 11.6054V15.4739H26.1123L24.178 20.3095H21.2766V30.9479H27.0794C29.2128 30.9479 30.9479 29.2128 30.9479 27.0794V3.86848C30.9479 1.73501 29.2128 0 27.0794 0Z" fill="#031322"/>
</svg>
