<svg width="31" height="31" viewBox="0 0 31 31" fill="none" xmlns="http://www.w3.org/2000/svg">
<path d="M15.4739 2.79649C19.5755 2.79649 20.1348 2.79649 21.8126 2.79649C23.3041 2.79649 24.0498 3.16936 24.6091 3.35579C25.3549 3.72866 25.9142 3.91509 26.4735 4.47439C27.0328 5.03369 27.4056 5.59299 27.5921 6.33872C27.7785 6.89802 27.9649 7.64375 28.1514 9.13521C28.1514 10.8131 28.1514 11.186 28.1514 15.4739C28.1514 19.7619 28.1514 20.1348 28.1514 21.8126C28.1514 23.3041 27.7785 24.0498 27.5921 24.6091C27.2192 25.3549 27.0328 25.9142 26.4735 26.4735C25.9142 27.0328 25.3549 27.4056 24.6091 27.5921C24.0498 27.7785 23.3041 27.9649 21.8126 28.1514C20.1348 28.1514 19.7619 28.1514 15.4739 28.1514C11.186 28.1514 10.8131 28.1514 9.13521 28.1514C7.64375 28.1514 6.89802 27.7785 6.33872 27.5921C5.59299 27.2192 5.03369 27.0328 4.47439 26.4735C3.91509 25.9142 3.54223 25.3549 3.35579 24.6091C3.16936 24.0498 2.98293 23.3041 2.79649 21.8126C2.79649 20.1348 2.79649 19.7619 2.79649 15.4739C2.79649 11.186 2.79649 10.8131 2.79649 9.13521C2.79649 7.64375 3.16936 6.89802 3.35579 6.33872C3.72866 5.59299 3.91509 5.03369 4.47439 4.47439C5.03369 3.91509 5.59299 3.54223 6.33872 3.35579C6.89802 3.16936 7.64375 2.98293 9.13521 2.79649C10.8131 2.79649 11.3724 2.79649 15.4739 2.79649ZM15.4739 0C11.186 0 10.8131 0 9.13521 0C7.45732 0 6.33872 0.372867 5.40655 0.745733C4.47439 1.1186 3.54223 1.6779 2.61006 2.61006C1.6779 3.54223 1.30503 4.28796 0.745733 5.40655C0.372867 6.33872 0.186433 7.45732 0 9.13521C0 10.8131 0 11.3724 0 15.4739C0 19.7619 0 20.1348 0 21.8126C0 23.4905 0.372867 24.6091 0.745733 25.5413C1.1186 26.4735 1.6779 27.4056 2.61006 28.3378C3.54223 29.27 4.28796 29.6428 5.40655 30.2021C6.33872 30.575 7.45732 30.7614 9.13521 30.9479C10.8131 30.9479 11.3724 30.9479 15.4739 30.9479C19.5755 30.9479 20.1348 30.9479 21.8126 30.9479C23.4905 30.9479 24.6091 30.575 25.5413 30.2021C26.4735 29.8293 27.4056 29.27 28.3378 28.3378C29.27 27.4056 29.6428 26.6599 30.2021 25.5413C30.575 24.6091 30.7614 23.4905 30.9479 21.8126C30.9479 20.1348 30.9479 19.5755 30.9479 15.4739C30.9479 11.3724 30.9479 10.8131 30.9479 9.13521C30.9479 7.45732 30.575 6.33872 30.2021 5.40655C29.8293 4.47439 29.27 3.54223 28.3378 2.61006C27.4056 1.6779 26.6599 1.30503 25.5413 0.745733C24.6091 0.372867 23.4905 0.186433 21.8126 0C20.1348 0 19.7619 0 15.4739 0Z" fill="#031322"/>
<path d="M15.4739 7.45731C10.9995 7.45731 7.45731 10.9995 7.45731 15.4739C7.45731 19.9483 10.9995 23.4905 15.4739 23.4905C19.9483 23.4905 23.4905 19.9483 23.4905 15.4739C23.4905 10.9995 19.9483 7.45731 15.4739 7.45731ZM15.4739 20.694C12.6774 20.694 10.2538 18.4569 10.2538 15.4739C10.2538 12.6774 12.491 10.2538 15.4739 10.2538C18.2704 10.2538 20.694 12.491 20.694 15.4739C20.694 18.2704 18.2704 20.694 15.4739 20.694Z" fill="#031322"/>
<path d="M23.677 9.13521C24.7066 9.13521 25.5413 8.30052 25.5413 7.27088C25.5413 6.24124 24.7066 5.40655 23.677 5.40655C22.6473 5.40655 21.8126 6.24124 21.8126 7.27088C21.8126 8.30052 22.6473 9.13521 23.677 9.13521Z" fill="#031322"/>
</svg>
